<svg xmlns="http://www.w3.org/2000/svg" viewBox="0 0 504.07 504.22"><title>Asset 6</title><g id="Layer_2" data-name="Layer 2"><g id="Layer_1-2" data-name="Layer 1"><g id="e9LxqT.tif"><path d="M244.64,0C292,.21,329.86,9.22,365.3,27.11c39.86,20.12,72.46,48.84,97,86.36,27.56,42.17,41.65,88.43,41.76,138.85,0,7,.19,14-.58,20.87-9.23,82.41-47.51,147.45-117.58,192.38-40.58,26-85.62,38.76-134,38.64a195.6,195.6,0,0,1-20.84-.67c-80-8.79-143.77-45.36-189-112.4C13.79,349.21.31,302.47,0,251.86c-.13-22.13,3.16-43.74,8.72-65a244.14,244.14,0,0,1,25.19-60.73A252.68,252.68,0,0,1,74,73.86a250.14,250.14,0,0,1,52.3-40,243.13,243.13,0,0,1,60.79-25C208.42,3.32,230-.39,244.64,0Zm7.43,492.13C384.65,492.09,490.6,384.35,492,255.33c1.45-135.81-108.42-241.45-236.7-243.06C121.46,10.6,8.63,120.46,12.17,259.15,15.37,384.28,118.63,491.94,252.07,492.16Z"/><path d="M162.56,368.23c-9.95.32-16.94-7.39-16.92-16.86,0-4.43,2.14-8.36,5.33-11.52,4.6-4.56,9.19-9.15,14-13.51,10.63-9.66,21.41-19.15,32.08-28.77,7.34-6.62,14.56-13.35,21.88-20q18.27-16.59,36.58-33.12c1.78-1.61,3.73-3.06,5.41-4.77,2.35-2.38,2.35-4.29.08-6.74-4.17-4.52-8.46-8.93-12.62-13.46-5.44-5.93-10.81-11.93-16.21-17.9l-17.53-19.4c-5.18-5.73-10.4-11.42-15.56-17.18q-11.73-13.08-23.37-26.24c-4.51-5.12-5.1-11.1-2.18-17,3.08-6.19,9.15-10.78,17-9.75a14.53,14.53,0,0,1,9.43,5c7,7.92,14.16,15.67,21.29,23.46,6,6.56,12.06,13.07,18,19.64,5,5.52,10,11.11,15,16.64,6,6.63,12.1,13.22,18.13,19.85,5.25,5.77,10.52,11.51,15.67,17.36,3.62,4.11,7.17,8.3,10.54,12.63a21,21,0,0,1,4.13,11.31c.48,6-2.87,10.41-7,14.25-5,4.64-10.1,9.16-15.15,13.73Q264.56,280.46,248.49,295c-7.75,7.05-15.42,14.18-23.14,21.26q-9.54,8.76-19.12,17.49c-5.65,5.13-11.37,10.18-17,15.32-5.89,5.36-11.66,10.86-17.63,16.13A11.48,11.48,0,0,1,162.56,368.23Z"/><path d="M215.47,437.08c-.75,3.77-1.35,7.8-2.37,11.74-1.64,6.35,0,9,6.48,9.83l20.76,2.65c4.26.54,5,1.23,5.09,5.51.08,2.58.08,5.17-.06,7.74-.18,3.37-2.17,4.89-6,4.46-8.34-.91-16.76-1.44-25-3.05-11-2.16-21.87-4.92-32.64-8A137.78,137.78,0,0,1,161,460.34a291.79,291.79,0,0,1-27.46-14.47c-8.36-5.06-16.26-10.91-24.1-16.77a181.24,181.24,0,0,1-25.93-24.36c-6-6.65-11.28-13.93-16.72-21.06-2.25-3-4.06-6.24-6.09-9.36a3,3,0,0,1,1-4.54,83,83,0,0,1,9.88-5.66,4.31,4.31,0,0,1,3.92.93c2.52,2.84,4.63,6,6.92,9.08,2.75,3.65,5.43,7.36,8.31,10.9,2.52,3.1,5,3.43,8.22,1,3.41-2.64,6.6-5.57,9.89-8.37.32-.27.62-.56.95-.81,3.21-2.45,3.63-2.42,6.4.5a183.73,183.73,0,0,0,28.17,24.51c7.94,5.53,16.54,10.13,24.95,15,8.81,5.07,18.37,8.42,28,11.57,4.72,1.55,9.58,2.71,14.4,3.92C214.59,433,215.53,434,215.47,437.08Z"/><path d="M258.69,470.26c0-8.49-.17-8.36,7.63-9.26,6.43-.74,12.85-1.65,19.28-2.42,4.63-.56,6.85-3.64,5.83-8.1-.89-3.89-1.73-7.79-2.57-11.68-.91-4.22.27-5.59,4.42-6.69,6.8-1.82,13.59-3.77,20.22-6.14A152.93,152.93,0,0,0,333,417.85a263.69,263.69,0,0,0,24.16-14.32,189.39,189.39,0,0,0,17.39-13.7c4.74-4,9.17-8.43,13.64-12.77,2.54-2.47,3-2.72,5.84-.48,3.5,2.8,6.73,5.94,10.26,8.69,4.45,3.47,6.83,3.11,10.21-1.41,4.18-5.58,8.17-11.3,12.34-16.89,2.95-3.95,4-4.09,8.36-1.78,1.54.81,3.1,1.6,4.62,2.45,4.59,2.57,5.29,5.09,2.22,9.36-5,6.94-9.8,14.05-15.36,20.51a248.51,248.51,0,0,1-22,23.06,270.11,270.11,0,0,1-26.17,20.23,213.43,213.43,0,0,1-23.45,14.09c-7,3.66-14.52,6.49-21.93,9.39-5.78,2.27-11.68,4.3-17.63,6s-11.73,3.14-17.68,4.27c-7.1,1.35-14.27,2.34-21.43,3.33-4,.55-8.09.92-12.15,1.1s-5.38-1.2-5.55-5.25C258.65,472.59,258.69,471.42,258.69,470.26Z"/><path d="M245.45,34.37c0,1.08,0,2.17,0,3.25-.18,4.38-.86,5.11-5.29,5.58-5.7.61-11.42,1-17.09,1.85a31.59,31.59,0,0,0-8.24,2.41c-2.26,1-2.94,3.15-2.32,5.7,1,4.12,1.85,8.27,2.75,12.41.82,3.79-.53,5.62-4.14,6.56-5.61,1.46-11.19,3.07-16.69,4.88-5,1.64-9.85,3.51-14.67,5.53a114.69,114.69,0,0,0-12.31,5.86c-7.27,4.13-14.57,8.26-21.49,12.94a183.57,183.57,0,0,0-28,23.93c-4.78,4.87-4.92,4.81-10.13.61-2.65-2.14-5.21-4.38-7.71-6.7-3.34-3.11-7.36-2.8-9.76.76-4.08,6-8.62,11.78-13,17.59-2.86,3.77-3.93,3.92-8.12,1.52a65.65,65.65,0,0,1-6-3.48c-4.38-3.17-3.94-3.55-1.27-7.49a290.78,290.78,0,0,1,18.53-24.36A182.59,182.59,0,0,1,99.12,84.16a291.85,291.85,0,0,1,26-20.1,196.12,196.12,0,0,1,24.09-14.48,231.33,231.33,0,0,1,27.09-11.23,214.79,214.79,0,0,1,27.5-7.87c10.06-2.08,20.37-3,30.58-4.36,1.23-.17,2.49-.21,3.71-.45,5.05-1,7.26.66,7.41,5.7,0,1,0,2,0,3Z"/><path d="M288.86,66.45c.6-3,1.22-7.05,2.23-11,1.55-6,0-8.76-6.24-9.64-6.73-1-13.49-1.79-20.25-2.54-5.13-.57-5.81-1.15-5.93-6.29,0-2,0-4,0-6,.14-4.4,2.17-6,6.55-5.52,4.87.55,9.79.71,14.63,1.44q11,1.65,21.84,3.88c5.12,1,10.2,2.38,15.2,3.88,6,1.81,12.06,3.71,17.93,6,6.79,2.66,13.55,5.48,20,8.79S367.76,56.69,374,60.63c9.49,6,18.7,12.4,26.9,20.12,6.52,6.14,13.49,11.91,19.32,18.65a354.81,354.81,0,0,1,22,28.61c2.85,4.08,3.12,4.54-1.31,7.66a62.52,62.52,0,0,1-7.78,4.45A3.68,3.68,0,0,1,428,139c-2-2.67-4-5.31-6-8-2.85-3.77-5.89-7.42-8.52-11.35-2.22-3.31-6-3.46-9-.86s-6.27,5.44-9.46,8.11c-3.38,2.83-4.12,2.83-7.32-.19s-6.35-6.64-9.87-9.55c-7.17-5.91-14.56-11.55-21.89-17.25-9.1-7.08-19.57-11.82-29.88-16.71-6.71-3.19-13.94-5.3-21-7.68-4.31-1.45-8.78-2.44-13.15-3.73C289.84,71.21,288.46,69.88,288.86,66.45Z"/><path d="M24.5,252.17c.74-9.52,1.15-19.08,2.29-28.55a181.28,181.28,0,0,1,7.71-36.27c3-8.88,6.09-17.74,9.51-26.45,1.84-4.67,4.43-9,6.77-13.51A2.91,2.91,0,0,1,55,146.05c3.42,1.86,6.74,3.91,10.09,5.9,1.81,1.08,1.83,2.65,1.06,4.34-3,6.65-6.12,13.27-9.08,19.95a20.41,20.41,0,0,0-1.5,5.26c-.39,2.67,1.57,4.55,5.22,5.68,4,1.23,7.89,2.55,11.78,4,3.59,1.33,3.91,3.66,2.62,8.43-2,7.25-3.6,14.61-5,22-1.17,6.26-2,12.6-2.58,18.94a84.63,84.63,0,0,0-.18,12.23c.41,8.53.68,17.1,1.72,25.56.8,6.46,2.69,12.79,4.12,19.17.74,3.31,1.68,6.59,2.31,9.92.76,4,.06,4.88-3.94,6.26-4.46,1.53-8.93,3.09-13.3,4.86-2.58,1-3.4,2.81-2.36,5.45,2.51,6.4,5.29,12.69,8,19,.75,1.76,1.58,3.48,2.31,5.24,1,2.36-.39,3.92-2.11,5-2.43,1.57-5,2.9-7.59,4.26-4.4,2.34-5.22,1.61-7.34-2.77-4.19-8.63-7.7-17.61-11.11-26.59a172.93,172.93,0,0,1-6.08-19.22c-1.8-7.16-3.14-14.46-4.32-21.75-1.1-6.79-1.94-13.65-2.49-20.51-.38-4.8-.07-9.65-.07-14.48Z"/><path d="M479.59,252.52c-.74,9.61-1.16,19.26-2.31,28.82a179.43,179.43,0,0,1-7.64,35.79c-3,8.81-6,17.59-9.43,26.23a139.2,139.2,0,0,1-6.76,13.52c-1,2-2.67,2.34-4.64,1.23-3.1-1.75-6.28-3.37-9.32-5.23-2.23-1.36-2.38-3.39-1.26-5.66,1.87-3.79,3.77-7.57,5.47-11.44,1.53-3.49,2.84-7.09,4.15-10.67,1.92-5.24-.84-6.32-4.44-7.71-3.87-1.49-7.87-2.62-11.77-4-3.29-1.18-3.92-2.2-3.19-5.59.88-4,2.12-8,3-12.05s1.79-8.27,2.41-12.45q1.49-9.95,2.6-19.95a55.62,55.62,0,0,0,.18-8.73c-.46-9.37-.65-18.77-1.71-28.07-.78-6.88-2.72-13.62-4.21-20.42-.67-3.07-1.63-6.08-2.23-9.17-.74-3.75,0-4.73,3.66-6,4.53-1.6,9.09-3.13,13.54-4.93,2.68-1.09,3.49-2.85,2.57-5.65-1.3-3.93-2.86-7.8-4.51-11.6-1.85-4.26-4-8.41-5.9-12.65-.73-1.6-.61-3.11,1.1-4.12,3.43-2,6.8-4.17,10.33-6,2.12-1.09,4.09.05,5.63,3.59,3.86,8.9,7.66,17.83,11.1,26.9a165.36,165.36,0,0,1,6.15,19.46c1.83,7.5,3.09,15.15,4.29,22.78,1,6.64,1.87,13.33,2.41,20,.37,4.55.07,9.16.07,13.74Z"/><path d="M280.57,337.32q23.48,0,47,0c5.33,0,10.66.06,16,.28,4.36.18,7.15,3,9.09,6.52,3.17,5.77,3.13,15.79-2.8,20.74a17.65,17.65,0,0,1-12.11,4.32c-3.32-.08-6.66.2-10,.21q-48.11,0-96.21,0a112.62,112.62,0,0,1-11.48-.2C208,368,202,357.76,205.75,347a18.46,18.46,0,0,1,2.71-5c2.64-3.49,6.23-4.82,10.66-4.78,17.9.15,35.81.11,53.71.13h7.74Z"/></g></g></g></svg>